<?xml version="1.0" encoding="utf-8"?>
<!-- Generator: Adobe Illustrator 19.2.1, SVG Export Plug-In . SVG Version: 6.00 Build 0)  -->
<svg version="1.1" id="Layer_1" xmlns="http://www.w3.org/2000/svg" xmlns:xlink="http://www.w3.org/1999/xlink" x="0px" y="0px"
	 viewBox="0 0 32 32" style="enable-background:new 0 0 32 32;" xml:space="preserve">
<style type="text/css">
	.st0{fill:#DC0A0A;}
</style>
<path class="st0" d="M2.3,19.7c-0.2,0-0.4-0.1-0.5-0.2c-0.3-0.3-0.4-0.8-0.1-1.1l1.5-1.7c0.3-0.4,3.1-3.8,7.1-3.8
	c1.7,0,3.5,0.6,5.4,1.9l0,0l2.2,1.6c1.1,0.7,2.7,1.7,4.4,1.7c3.3,0,5.8-3.2,5.8-3.2l0,0l1.6-1.7c0.3-0.3,0.8-0.4,1.1-0.1
	c0.3,0.3,0.4,0.8,0.1,1.1l-1.5,1.7c-0.3,0.4-3.1,3.8-7.1,3.8c-2.1,0-4.1-1.1-5.3-2l0,0l-2.2-1.6c-1.6-1.1-3.1-1.6-4.4-1.6
	c-3.3,0-5.8,3.2-5.8,3.2l0,0L3,19.4C2.7,19.6,2.5,19.7,2.3,19.7L2.3,19.7z"/>
</svg>
