<?xml version="1.0" encoding="utf-8"?>
<!-- Generator: Adobe Illustrator 19.2.1, SVG Export Plug-In . SVG Version: 6.00 Build 0)  -->
<svg version="1.1" id="Layer_1" xmlns="http://www.w3.org/2000/svg" xmlns:xlink="http://www.w3.org/1999/xlink" x="0px" y="0px"
	 viewBox="0 0 32 32" style="enable-background:new 0 0 32 32;" xml:space="preserve">
<style type="text/css">
	.st0{fill:#9FA0A4;}
</style>
<g>
	<path class="st0" d="M16.1,5C8.7,5,2.8,11,2.8,18.3v0.1l0,0l0,0c0,3,1.1,5.7,2.8,7.9c0.1,0.2,0.4,0.3,0.6,0.3h2.4
		c0.4,0,0.8-0.3,0.8-0.8c0-0.4-0.3-0.8-0.8-0.8h-2c-1.2-1.7-2-3.8-2.2-6h2c0.4,0,0.8-0.3,0.8-0.8c0-0.4-0.3-0.8-0.8-0.8h-2
		c0.1-2.4,1-4.7,2.4-6.5l1.5,1.5c0.3,0.3,0.8,0.3,1.1,0s0.3-0.8,0-1.1L7.6,10l0.1-0.1c2-2,4.7-3.2,7.6-3.4v2.4
		c0,0.4,0.3,0.8,0.8,0.8c0.5,0,0.8-0.3,0.8-0.8V6.5c3,0.2,5.6,1.5,7.6,3.4c0.1,0.1,0.2,0.2,0.3,0.3l-1.5,1.5c-0.3,0.3-0.3,0.8,0,1.1
		s0.8,0.3,1.1,0l1.4-1.4c1.3,1.8,2.1,4,2.2,6.3h-2c-0.4,0-0.8,0.3-0.8,0.8c0,0.4,0.3,0.8,0.8,0.8h2c-0.2,2.2-1,4.3-2.2,6h-5.5
		C20,25.1,19.8,25,19.6,25c-0.4,0-0.7,0.4-0.7,0.8V26c0,0.4-0.1,0.7-0.3,1.1c-0.4,0.6-1.1,1-1.7,1c-0.4,0-0.7-0.1-1.1-0.3
		c-0.6-0.4-1-1.1-1-1.7c0-0.4,0.1-0.7,0.3-1.1c0.1-0.2,0.1-0.4,0.1-0.6L13,15.9l4.2,6.7c0.2,0.4,0.7,0.5,1,0.2
		c0.4-0.2,0.5-0.7,0.2-1l-6.8-10.9c-0.2-0.3-0.6-0.4-0.9-0.3c-0.3,0.1-0.5,0.5-0.4,0.9l3.4,12.9c-0.2,0.5-0.4,1-0.4,1.5
		c0,1.2,0.6,2.4,1.7,3c0.6,0.4,1.2,0.5,1.8,0.5c1.2,0,2.4-0.6,3-1.7c0.2-0.4,0.4-0.8,0.4-1.1h5.7c0.2,0,0.5-0.1,0.6-0.3
		c1.7-2.2,2.7-4.9,2.8-7.9l0,0l0,0v-0.1C29.4,10.9,23.4,5,16.1,5z"/>
	<path class="st0" d="M5.5,9c0.1-0.1,0.2-0.3,0.2-0.5V4.7c0-0.4-0.3-0.8-0.8-0.8c-0.4,0-0.8,0.3-0.8,0.8v2L1.4,3.9
		c-0.3-0.3-0.8-0.3-1.1,0C0.1,4.2,0.1,4.7,0.4,5l2.7,2.7H1.2C0.8,7.7,0.4,8,0.4,8.4s0.3,0.8,0.8,0.8H5C5.1,9.2,5.3,9.1,5.5,9z"/>
	<path class="st0" d="M31.7,5.8c0-1.6-1.3-2.9-2.9-2.9s-2.9,1.3-2.9,2.9c0,1.4,0.9,2.5,2.2,2.8v1.8c0,0.4,0.3,0.8,0.8,0.8
		c0.4,0,0.8-0.3,0.8-0.8V8.6C30.8,8.3,31.7,7.1,31.7,5.8z M29.8,6.8c-0.3,0.3-0.6,0.4-1,0.4S28,7,27.8,6.8c-0.3-0.3-0.4-0.6-0.4-1
		s0.2-0.8,0.4-1c0.3-0.3,0.6-0.4,1-0.4s0.8,0.2,1,0.4c0.3,0.3,0.4,0.6,0.4,1C30.2,6.2,30.1,6.5,29.8,6.8z"/>
</g>
</svg>
