<?xml version="1.0" encoding="utf-8"?>
<!-- Generator: Adobe Illustrator 19.2.1, SVG Export Plug-In . SVG Version: 6.00 Build 0)  -->
<svg version="1.1" id="Layer_1" xmlns="http://www.w3.org/2000/svg" xmlns:xlink="http://www.w3.org/1999/xlink" x="0px" y="0px"
	 viewBox="0 0 32 32" style="enable-background:new 0 0 32 32;" xml:space="preserve">
<style type="text/css">
	.st0{fill:#9FA0A4;}
</style>
<path class="st0" d="M30.4,14.1H2c-0.5,0-0.9-0.4-0.9-0.9s0.4-0.9,0.9-0.9h28.3c0.5,0,0.9,0.4,0.9,0.9
	C31.2,13.7,30.9,14.1,30.4,14.1z"/>
<path class="st0" d="M7.5,20.2H2c-0.5,0-0.9-0.4-0.9-0.9s0.4-0.9,0.9-0.9h5.4c0.5,0,0.9,0.4,0.9,0.9S8,20.2,7.5,20.2z"/>
<path class="st0" d="M30.3,20.2h-5.4c-0.5,0-0.9-0.4-0.9-0.9s0.4-0.9,0.9-0.9h5.5c0.5,0,0.9,0.4,0.9,0.9S30.8,20.2,30.3,20.2z"/>
<path class="st0" d="M18.9,20.2h-5.4c-0.5,0-0.9-0.4-0.9-0.9s0.4-0.9,0.9-0.9H19c0.5,0,0.9,0.4,0.9,0.9S19.4,20.2,18.9,20.2z"/>
</svg>
