<?xml version="1.0" encoding="utf-8"?>
<!-- Generator: Adobe Illustrator 19.2.1, SVG Export Plug-In . SVG Version: 6.00 Build 0)  -->
<svg version="1.1" id="Layer_1" xmlns="http://www.w3.org/2000/svg" xmlns:xlink="http://www.w3.org/1999/xlink" x="0px" y="0px"
	 viewBox="0 0 32 32" style="enable-background:new 0 0 32 32;" xml:space="preserve">
<style type="text/css">
	.st0{fill:#9FA0A4;}
</style>
<path class="st0" d="M30.8,26.1h-28V4.6h9.6l11.2,11.2h-2.5c-0.6,0-1,0.4-1,1s0.4,1,1,1H26c0.3,0,0.5-0.1,0.7-0.3
	c0.2-0.2,0.3-0.4,0.3-0.7V12c0-0.6-0.4-1-1-1s-1,0.4-1,1v2.5L13.5,2.9c-0.2-0.2-0.4-0.3-0.7-0.3h-11c-0.6,0-1,0.4-1,1v0.1v0.1V27
	c0,0.3,0.1,0.5,0.3,0.7S1.5,28,1.8,28h29c0.6,0,1-0.4,1-1C31.8,26.5,31.3,26.1,30.8,26.1z"/>
</svg>
