<?xml version="1.0" encoding="utf-8"?>
<!-- Generator: Adobe Illustrator 19.2.1, SVG Export Plug-In . SVG Version: 6.00 Build 0)  -->
<svg version="1.1" id="Layer_1" xmlns="http://www.w3.org/2000/svg" xmlns:xlink="http://www.w3.org/1999/xlink" x="0px" y="0px"
	 viewBox="0 0 32 32" style="enable-background:new 0 0 32 32;" xml:space="preserve">
<style type="text/css">
	.st0{fill:#DC0A0A;}
</style>
<g>
	<path class="st0" d="M16.8,21.7V3.8c0-2.2-1.5-3.4-2.9-3.4s-3,1.2-3,3.4v6.7c0,0.5,0.4,0.9,0.9,0.9s0.9-0.4,0.9-0.9V3.8
		c0-1,0.6-1.5,1.2-1.5c0.5,0,1.1,0.4,1.1,1.5v8.9h-3.2c-0.5,0-0.9,0.4-0.9,0.9v8.1c-1.5,1-2.4,2.6-2.4,4.5c0,2.9,2.4,5.3,5.3,5.3
		l0,0c2.9,0,5.3-2.4,5.3-5.3C19.2,24.3,18.3,22.7,16.8,21.7z M13.9,29.6c-1.9,0-3.5-1.6-3.5-3.5c0-1.3,0.7-2.5,1.9-3.1
		c0.3-0.2,0.5-0.5,0.5-0.8v-7.7H15v7.7c0,0.3,0.2,0.6,0.5,0.8c1.2,0.6,1.9,1.8,1.9,3.1C17.4,28,15.8,29.6,13.9,29.6z"/>
	<path class="st0" d="M21.1,0.6c-1.6,0-2.8,1.3-2.8,2.8c0,1.6,1.3,2.8,2.8,2.8c1.6,0,2.8-1.3,2.8-2.8C23.9,1.8,22.6,0.6,21.1,0.6z
		 M21.1,4.7c-0.7,0-1.3-0.6-1.3-1.3s0.6-1.3,1.3-1.3c0.7,0,1.3,0.6,1.3,1.3S21.8,4.7,21.1,4.7z"/>
</g>
</svg>
