<?xml version="1.0" encoding="utf-8"?>
<!-- Generator: Adobe Illustrator 19.2.1, SVG Export Plug-In . SVG Version: 6.00 Build 0)  -->
<svg version="1.1" id="Layer_1" xmlns="http://www.w3.org/2000/svg" xmlns:xlink="http://www.w3.org/1999/xlink" x="0px" y="0px"
	 viewBox="0 0 32 32" style="enable-background:new 0 0 32 32;" xml:space="preserve">
<style type="text/css">
	.st0{fill:#9FA0A4;}
</style>
<g transform="translate(0 432)">
	<path class="st0" d="M28.9-413.1H15.6l7.4-8.4c0.3-0.3,0.3-0.7,0.1-1.1c-0.2-0.3-0.6-0.5-1-0.4l-5.5,1.2l5.3-7.8
		c0.3-0.4,0.2-1-0.2-1.3c-0.4-0.3-1-0.2-1.3,0.2l-6.6,9.7c-0.2,0.3-0.2,0.7,0,1s0.6,0.5,1,0.4l5-1.1l-6.5,7.4l-0.1,0.1H3.1
		c-0.5,0-0.9,0.4-0.9,0.9s0.4,0.9,0.9,0.9h25.7c0.5,0,0.9-0.4,0.9-0.9C29.8-412.6,29.4-413.1,28.9-413.1L28.9-413.1z"/>
	<path class="st0" d="M25-408.1H6.6c-0.5,0-0.9,0.4-0.9,0.9s0.4,0.9,0.9,0.9H25c0.5,0,0.9-0.4,0.9-0.9C26-407.7,25.6-408.1,25-408.1
		z"/>
	<path class="st0" d="M21.7-403.2H10c-0.5,0-0.9,0.4-0.9,0.9s0.4,0.9,0.9,0.9h11.7c0.5,0,0.9-0.4,0.9-0.9
		C22.6-402.8,22.2-403.2,21.7-403.2z"/>
</g>
</svg>
