<?xml version="1.0" encoding="utf-8"?>
<!-- Generator: Adobe Illustrator 19.2.1, SVG Export Plug-In . SVG Version: 6.00 Build 0)  -->
<svg version="1.1" id="Layer_1" xmlns="http://www.w3.org/2000/svg" xmlns:xlink="http://www.w3.org/1999/xlink" x="0px" y="0px"
	 viewBox="0 0 32 32" style="enable-background:new 0 0 32 32;" xml:space="preserve">
<style type="text/css">
	.st0{fill:#9FA0A4;}
</style>
<path class="st0" d="M31.2,15H17.4c-0.2-0.9-0.6-2.7-1.2-4.5c-0.5-1.3-1.1-2.6-1.8-3.6C14,6.4,13.6,6,13.1,5.6
	c-0.4-0.3-0.9-0.4-1.4-0.5c-0.2-0.5-0.3-0.9-0.5-1.3C10.8,3,10.5,2.4,10,2C9.6,1.5,9,1.1,8.3,1.1C7.7,1.1,7.1,1.5,6.6,2
	C5.9,2.8,5.4,4,4.9,5.4C3.8,8.8,3.2,13.4,3,15H1.1c-0.4,0-0.8,0.3-0.8,0.8c0,0.4,0.3,0.8,0.8,0.8h11.2c0.1,1.2,0.5,3.7,1,6.2
	c0.4,1.7,0.9,3.5,1.5,4.9c0.3,0.7,0.7,1.3,1.1,1.8s1,0.8,1.7,0.8c0.7,0,1.3-0.4,1.7-0.8c0.8-0.8,1.3-2,1.8-3.4V26
	c0.5,0.3,1,0.4,1.5,0.4c0.6,0,1.2-0.2,1.7-0.5c0.9-0.6,1.5-1.5,2.1-2.5c1.3-2.3,2-5.4,2.2-6.7h2.6c0.4,0,0.8-0.3,0.8-0.8
	C32,15.3,31.7,15,31.2,15z M20.3,23.5c-0.2-0.2-0.3-0.5-0.5-0.8c-0.8-1.4-1.4-3.2-1.7-4.7c-0.2-0.6-0.3-1.2-0.4-1.6h3.8
	C21.4,17.8,20.9,20.8,20.3,23.5z M12.5,6.4c0.6,0.4,1.2,1.2,1.8,2.1c0.8,1.4,1.4,3.2,1.7,4.7c0.2,0.7,0.3,1.3,0.4,1.7h-2.7
	c-0.1-1.2-0.5-3.7-1-6.3c-0.2-0.8-0.4-1.7-0.6-2.4C12.2,6.2,12.3,6.3,12.5,6.4z M10.5,6.3c0.6,1.9,1,4.2,1.3,6
	c0.2,1,0.3,1.8,0.3,2.5c0,0.1,0,0.1,0,0.2H6.4c0.2-1.1,0.7-3.2,1.5-5.1c0.4-1.1,1-2,1.6-2.7C9.8,6.7,10.1,6.5,10.5,6.3z M5.8,7.6
	c0.4-1.4,0.8-2.8,1.3-3.7c0.2-0.5,0.5-0.8,0.7-1s0.4-0.3,0.5-0.3S8.6,2.7,8.9,3c0.4,0.4,0.8,1.3,1.2,2.3C10,5.4,9.9,5.5,9.7,5.6
	C8.9,6.1,8.2,7,7.7,8.1c-1.3,2.4-2,5.6-2.3,6.9H4.5C4.7,13.6,5.1,10.4,5.8,7.6z M18.9,27.3c-0.2,0.5-0.5,0.8-0.7,1s-0.4,0.3-0.5,0.3
	s-0.3-0.1-0.6-0.4c-0.5-0.5-1-1.6-1.4-2.9c-0.6-2-1.1-4.4-1.4-6.4c-0.2-1-0.3-1.8-0.3-2.4v-0.1h2.8c0.2,0.9,0.6,2.7,1.2,4.4
	c0.5,1.3,1.1,2.6,1.8,3.6c0.1,0.1,0.1,0.2,0.2,0.3C19.6,25.7,19.3,26.7,18.9,27.3z M26.1,21.4c-0.4,1.1-1,2-1.6,2.7
	s-1.2,1.1-1.9,1.1c-0.4,0-0.7-0.1-1.1-0.4l-0.1-0.1c0.9-3.2,1.4-6.9,1.6-8.3h4.6C27.4,17.6,26.9,19.6,26.1,21.4z"/>
</svg>
